<svg height="512" viewBox="0 0 24 24" width="512" xmlns="http://www.w3.org/2000/svg"><path d="m2.75 8.5757v4a.75.75 0 0 1 -1.5 0v-4a.75.75 0 0 1 1.5 0zm19.25-.75a.75.75 0 0 0 -.75.75v4a.75.75 0 0 0 1.5 0v-4a.75.75 0 0 0 -.75-.75zm-17 8.75a2 2 0 0 0 2 2h2.4648a1 1 0 0 1 .8321.4453l1.2871 1.9307a.5.5 0 0 0 .832 0l1.2871-1.9307a1 1 0 0 1 .8321-.4453h2.4648a2 2 0 0 0 2-2v-2h-14zm14-9v5.5h-14v-5.5a2 2 0 0 1 2-2h4.25v-2a.75.75 0 1 1 1.5 0v2h4.25a2 2 0 0 1 2 2zm-9 3a1 1 0 1 0 -1 1 1 1 0 0 0 1-1zm6 0a1 1 0 1 0 -1 1 1 1 0 0 0 1-1z"/></svg>