<?xml version="1.0" encoding="utf-8"?>
<!-- Generator: Adobe Illustrator 19.2.1, SVG Export Plug-In . SVG Version: 6.00 Build 0)  -->
<svg version="1.1" id="Capa_1" xmlns="http://www.w3.org/2000/svg" xmlns:xlink="http://www.w3.org/1999/xlink" x="0px" y="0px"
	 viewBox="0 0 261.5 84.9" style="enable-background:new 0 0 261.5 84.9;" xml:space="preserve">
<style type="text/css">
	.st0{fill:#FFFFFF;}
	.st1{fill:#00A6B9;}
</style>
<g>
	<path class="st0" d="M74.1,2.8h20.1v1.7h-18v10.3h16.1v1.7H76.2v11.3h-2.1V2.8z"/>
	<path class="st0" d="M109.6,2.6h2l13.3,25.2h-2.3l-3.6-7h-16.8l-3.6,7h-2.2L109.6,2.6z M118.1,19.2l-7.5-14.5l-7.5,14.5H118.1z"/>
	<path class="st0" d="M128.9,2.8h11.7c1.6,0,3.1,0.2,4.3,0.6c1.3,0.4,2.3,0.9,3.1,1.6c1.2,1.1,1.8,2.4,1.8,3.9v0.1
		c0,0.9-0.1,1.6-0.4,2.3c-0.3,0.6-0.7,1.2-1.1,1.7s-1,0.9-1.6,1.2c-0.6,0.3-1.2,0.6-1.7,0.8c0.8,0.2,1.7,0.4,2.4,0.8
		c0.8,0.3,1.5,0.7,2.1,1.2c0.6,0.5,1,1.1,1.4,1.7c0.4,0.7,0.5,1.4,0.5,2.3V21c0,1-0.2,2-0.7,2.8c-0.5,0.8-1.2,1.6-2.1,2.1
		c-0.9,0.6-2,1-3.2,1.4c-1.2,0.3-2.6,0.5-4.2,0.5h-12.4V2.8z M140.4,14.4c1.1,0,2-0.1,2.9-0.3c0.9-0.2,1.7-0.6,2.3-1s1.2-1,1.5-1.6
		s0.5-1.4,0.5-2.2V9.1c0-1.4-0.6-2.5-1.8-3.4s-3-1.3-5.3-1.3H131v9.9H140.4z M141.4,26.2c2.4,0,4.4-0.5,5.8-1.4
		c1.4-0.9,2.2-2.2,2.2-3.7V21c0-1.6-0.7-2.8-2.2-3.6s-3.6-1.3-6.5-1.3H131v10.1H141.4z"/>
	<path class="st0" d="M156.5,2.8h2.1v25h-2.1V2.8z"/>
	<path class="st0" d="M176.2,2.6h2l13.3,25.2h-2.3l-3.6-7h-16.8l-3.6,7h-2.2L176.2,2.6z M184.7,19.2l-7.5-14.5l-7.5,14.5H184.7z"/>
	<path class="st0" d="M195.5,2.8h2l19.7,21.8V2.8h2v25h-1.6L197.5,5.6v22.2h-2V2.8z"/>
</g>
<g>
	<path class="st0" d="M73.2,38.4h2l11.4,14.8l11.4-14.8h2v25H98V41.7L86.7,56.1h-0.2L75.2,41.7v21.7h-2V38.4z"/>
	<path class="st0" d="M106.8,38.4h2.1v25h-2.1V38.4z"/>
	<path class="st0" d="M115.6,38.4h12c1.8,0,3.3,0.2,4.7,0.7c1.4,0.4,2.5,1,3.3,1.8c0.7,0.6,1.2,1.3,1.6,2.1c0.4,0.8,0.6,1.6,0.6,2.6
		v0.1c0,1-0.2,2-0.6,2.8c-0.4,0.8-1,1.5-1.8,2.1c-0.7,0.6-1.6,1.1-2.6,1.4c-1,0.4-2.1,0.6-3.3,0.8l9.4,10.7h-2.7L127.1,53H127h-9.2
		v10.4h-2.1V38.4z M127.3,51.4c1.2,0,2.3-0.1,3.3-0.4c1-0.3,1.9-0.6,2.6-1.1c0.7-0.5,1.3-1.1,1.7-1.8c0.4-0.7,0.6-1.5,0.6-2.4v-0.1
		c0-1.7-0.7-3-2.1-4c-1.4-1-3.4-1.5-6-1.5h-9.7v11.3H127.3z"/>
	<path class="st0" d="M153.8,38.2h2l13.3,25.2h-2.3l-3.6-7h-16.8l-3.6,7h-2.2L153.8,38.2z M162.3,54.7l-7.5-14.5l-7.5,14.5H162.3z"
		/>
	<path class="st0" d="M173.1,38.4h2l19.7,21.8V38.4h2v25h-1.6l-20.1-22.2v22.2h-2V38.4z"/>
	<path class="st0" d="M203.3,38.4h9.5c2.2,0,4.3,0.3,6.1,0.9c1.9,0.6,3.5,1.5,4.8,2.6c1.3,1.1,2.4,2.4,3.1,3.9
		c0.7,1.5,1.1,3.2,1.1,4.9v0.1c0,1.8-0.4,3.4-1.1,4.9c-0.7,1.5-1.8,2.8-3.1,4c-1.3,1.1-2.9,2-4.8,2.6c-1.9,0.6-3.9,1-6.1,1h-9.5
		V38.4z M212.7,61.7c2,0,3.8-0.3,5.4-0.8c1.6-0.6,3-1.3,4.1-2.3c1.1-1,2-2.1,2.6-3.4c0.6-1.3,0.9-2.7,0.9-4.2v-0.1
		c0-1.5-0.3-2.9-0.9-4.2c-0.6-1.3-1.5-2.5-2.6-3.4c-1.1-1-2.5-1.8-4.1-2.3c-1.6-0.6-3.4-0.9-5.4-0.9h-7.4v21.7H212.7z"/>
	<path class="st0" d="M243.9,38.2h2l13.3,25.2h-2.3l-3.6-7h-16.8l-3.6,7h-2.2L243.9,38.2z M252.3,54.7l-7.5-14.5l-7.5,14.5H252.3z"
		/>
</g>
<g>
	<path class="st1" d="M58.9,1H5.2C2.5,1,0,3.5,0,6.2v38.3L8,25H7.9l4.9-11.9c0.6-1.7,2.9-3.1,5.1-3.1h41.5h4.3l-5.6,11.9
		C57.5,23.6,55.2,25,53,25H27.4l-4,10h16.7h4.3l-5.6,12c-0.6,1.7-2.9,3-5.1,3H17.2l-5.1,12.9c-0.2,0.6-0.6,1.1-1.2,2.1h48
		c2.7,0,5.1-2.4,5.1-5.1V6.2C64,3.5,61.6,1,58.9,1z"/>
</g>
<g>
	<path class="st0" d="M2,78.8L2,78.8c0-2.9,2.2-5.3,5.3-5.3c1.9,0,3,0.7,4.1,1.6L10.6,76c-0.9-0.8-1.9-1.4-3.3-1.4
		c-2.3,0-4,1.8-4,4.2v0c0,2.4,1.7,4.2,4,4.2c1.4,0,2.4-0.5,3.4-1.5l0.8,0.7c-1.1,1.1-2.3,1.8-4.2,1.8C4.2,84.1,2,81.8,2,78.8z"/>
	<path class="st0" d="M16.2,73.7h4.5c1.3,0,2.3,0.4,3,1c0.5,0.5,0.8,1.2,0.8,2v0c0,1.7-1.2,2.7-2.8,3l3.2,4.2h-1.4l-3-4h-3v4h-1.2
		V73.7z M20.6,78.9c1.6,0,2.7-0.8,2.7-2.1v0c0-1.3-1-2-2.7-2h-3.2v4.2H20.6z"/>
	<path class="st0" d="M29.7,73.7h7.6v1.1h-6.4v3.5h5.7v1.1h-5.7v3.6h6.4v1.1h-7.6V73.7z"/>
	<path class="st0" d="M46.3,73.6h1.1l4.8,10.3h-1.3l-1.2-2.7H44l-1.2,2.7h-1.2L46.3,73.6z M49.2,80.2l-2.4-5.2l-2.4,5.2H49.2z"/>
	<path class="st0" d="M58.4,74.7h-3.5v-1.1h8.2v1.1h-3.5v9.2h-1.2V74.7z"/>
	<path class="st0" d="M68.1,73.7h1.2v10.3h-1.2V73.7z"/>
	<path class="st0" d="M74.2,73.7h1.3l3.7,8.8l3.7-8.8h1.3L79.7,84h-1L74.2,73.7z"/>
	<path class="st0" d="M89,73.7h7.6v1.1h-6.4v3.5h5.7v1.1h-5.7v3.6h6.4v1.1H89V73.7z"/>
	<path class="st0" d="M111.7,74.7h-3.5v-1.1h8.2v1.1h-3.5v9.2h-1.2V74.7z"/>
	<path class="st0" d="M121.4,73.7h7.6v1.1h-6.4v3.5h5.7v1.1h-5.7v3.6h6.4v1.1h-7.6V73.7z"/>
	<path class="st0" d="M133.6,78.8L133.6,78.8c0-2.9,2.2-5.3,5.3-5.3c1.9,0,3,0.7,4.1,1.6l-0.8,0.8c-0.9-0.8-1.9-1.4-3.3-1.4
		c-2.3,0-4,1.8-4,4.2v0c0,2.4,1.7,4.2,4,4.2c1.4,0,2.4-0.5,3.4-1.5l0.8,0.7c-1.1,1.1-2.3,1.8-4.2,1.8
		C135.8,84.1,133.6,81.8,133.6,78.8z"/>
	<path class="st0" d="M147.8,73.7h1.2v4.6h6v-4.6h1.2v10.3H155v-4.6h-6v4.6h-1.2V73.7z"/>
	<path class="st0" d="M161.9,73.7h1.1l6.6,8.2v-8.2h1.1v10.3h-0.9l-6.7-8.4v8.4h-1.1V73.7z"/>
	<path class="st0" d="M175.9,78.8L175.9,78.8c0-2.9,2.2-5.3,5.3-5.3c3.2,0,5.3,2.4,5.3,5.3v0c0,2.8-2.2,5.3-5.3,5.3
		C178.1,84.1,175.9,81.7,175.9,78.8z M185.4,78.8L185.4,78.8c0-2.4-1.7-4.3-4.1-4.3s-4.1,1.9-4.1,4.2v0c0,2.3,1.7,4.2,4.1,4.2
		S185.4,81.2,185.4,78.8z"/>
	<path class="st0" d="M191.8,73.7h1.2v9.2h5.9v1.1h-7.1V73.7z"/>
	<path class="st0" d="M202.7,78.8L202.7,78.8c0-2.9,2.2-5.3,5.3-5.3c3.2,0,5.3,2.4,5.3,5.3v0c0,2.8-2.2,5.3-5.3,5.3
		C204.9,84.1,202.7,81.7,202.7,78.8z M212.2,78.8L212.2,78.8c0-2.4-1.7-4.3-4.1-4.3s-4.1,1.9-4.1,4.2v0c0,2.3,1.7,4.2,4.1,4.2
		S212.2,81.2,212.2,78.8z"/>
	<path class="st0" d="M218.1,78.8L218.1,78.8c0-2.8,2.1-5.3,5.2-5.3c1.8,0,2.9,0.5,3.9,1.4l-0.8,0.9c-0.8-0.7-1.7-1.2-3.2-1.2
		c-2.3,0-4,1.9-4,4.2v0c0,2.4,1.6,4.3,4.1,4.3c1.2,0,2.3-0.5,3-1v-2.5h-3.2v-1h4.3v4.1c-1,0.8-2.4,1.6-4.2,1.6
		C220.2,84.1,218.1,81.8,218.1,78.8z"/>
	<path class="st0" d="M233.1,73.7h1.2v10.3h-1.2V73.7z"/>
	<path class="st0" d="M239.4,82.4l0.7-0.8c1.1,1,2.1,1.5,3.6,1.5c1.4,0,2.3-0.7,2.3-1.7v0c0-1-0.5-1.5-2.7-1.9
		c-2.4-0.5-3.5-1.3-3.5-3v0c0-1.6,1.4-2.8,3.4-2.8c1.5,0,2.6,0.4,3.7,1.3l-0.7,0.9c-1-0.8-1.9-1.1-3-1.1c-1.4,0-2.2,0.7-2.2,1.7v0
		c0,1,0.5,1.5,2.8,2c2.3,0.5,3.4,1.3,3.4,2.9v0c0,1.8-1.5,2.9-3.6,2.9C242,84.1,240.7,83.5,239.4,82.4z"/>
	<path class="st0" d="M254.9,74.7h-3.5v-1.1h8.2v1.1h-3.5v9.2h-1.2V74.7z"/>
</g>
</svg>
