<svg xmlns="http://www.w3.org/2000/svg" version="1.1" xmlns:xlink="http://www.w3.org/1999/xlink" width="64" height="64"><svg id="SvgjsSvg1082" xmlns="http://www.w3.org/2000/svg" version="1.1" viewBox="0 0 64 64">
  <!-- Generator: Adobe Illustrator 29.0.0, SVG Export Plug-In . SVG Version: 2.1.0 Build 186)  -->
  <defs>
    <style>
      .st0 {
        fill: #26d6fc;
      }
    </style>
  </defs>
  <path class="st0" d="M58.9,0H5.2C2.5,0,0,2.5,0,5.2v38.3l8-19.5h0l4.9-11.9c.6-1.7,2.9-3.1,5.1-3.1h45.8l-5.6,11.9c-.6,1.7-2.9,3.1-5.1,3.1h-25.6l-4,10h21l-5.6,12c-.6,1.7-2.9,3-5.1,3h-16.5l-5.1,12.9c-.2.6-.6,1.1-1.2,2.1h48c2.7,0,5.1-2.4,5.1-5.1V5.2c0-2.7-2.4-5.2-5.1-5.2Z"></path>
</svg><style>@media (prefers-color-scheme: light) { :root { filter: none; } }
@media (prefers-color-scheme: dark) { :root { filter: none; } }
</style></svg>