<?xml version="1.0" encoding="UTF-8"?>
<svg id="Capa_1" data-name="Capa 1" xmlns="http://www.w3.org/2000/svg" version="1.1" viewBox="0 0 116.2 116.2">
  <path d="M0,0v116.2h116.2V0H0ZM73.6,105.7c-2.5.5-3.4-1-3.4-2.4s0-6.9,0-13.4-1.6-7.5-3.3-9.1c10.9-1.2,22.2-5.3,22.2-24.1s-1.9-9.7-5-13.1c.5-1.2,2.2-6.2-.5-12.9,0,0-4.1-1.3-13.4,5-3.9-1.1-8.1-1.6-12.2-1.6-4.1,0-8.3.6-12.2,1.6-9.3-6.3-13.4-5-13.4-5-2.6,6.7-1,11.7-.5,12.9-3.1,3.4-5,7.8-5,13.1,0,18.7,11.4,22.9,22.2,24.2-1.4,1.2-2.7,3.4-3.1,6.5-2.8,1.3-9.8,3.4-14.2-4.1,0,0-2.6-4.7-7.5-5,0,0-4.8,0-.3,3,0,0,3.2,1.5,5.4,7.2,0,0,2.9,9.5,16.4,6.6,0,4.1,0,7.2,0,8.3s-.9,2.8-3.3,2.4c-19.4-6.5-33.3-24.8-33.3-46.4S31.2,10.4,58.1,10.4s48.7,21.9,48.7,48.9-13.9,39.9-33.3,46.4Z" fill="currentColor" stroke-width="0"/>
</svg>